<svg width="5845" height="690" viewBox="0 0 5845 690" fill="none" xmlns="http://www.w3.org/2000/svg">
<path d="M642.06 352.597L354.921 65.4577C341.006 51.5427 318.383 51.5427 304.468 65.4577L17.1531 352.729C6.16988 363.712 0 378.59 0 394.08V632.911L7.00128 613.351C12.121 598.998 20.3474 586.002 31.1119 575.238L318.514 287.879C324.684 281.709 334.661 281.709 340.831 287.879L627.532 574.231C637.903 584.602 645.955 597.029 651.118 610.769L659.213 632.254V393.992C659.213 378.458 653.043 363.624 642.06 352.641V352.597Z" fill="#D2CDD6"/>
<path d="M1036.89 55L1052.33 59.5946C1060.65 62.045 1066.34 69.6589 1066.34 78.323V632.911H1202.34C1219.62 632.911 1233.62 618.908 1233.62 601.624V86.2869C1233.62 69.0025 1219.62 55 1202.34 55H1036.89Z" fill="#D2CDD6"/>
<path d="M863.256 414.647C902.286 414.647 933.926 383.007 933.926 343.978C933.926 304.948 902.286 273.309 863.256 273.309C824.227 273.309 792.587 304.948 792.587 343.978C792.587 383.007 824.227 414.647 863.256 414.647Z" fill="#D2CDD6"/>
<path d="M1436.44 414.647C1475.47 414.647 1507.11 383.007 1507.11 343.978C1507.11 304.948 1475.47 273.309 1436.44 273.309C1397.41 273.309 1365.77 304.948 1365.77 343.978C1365.77 383.007 1397.41 414.647 1436.44 414.647Z" fill="#D2CDD6"/>
<path d="M1932.8 266.045H1857.32L1739 55H1823.76L1896.18 204.652H1897.93L1969.91 55H2053.36L1932.8 266.045Z" fill="#D2CDD6"/>
<path d="M2296.65 55H2506.82V97.9265H2369.51V137.878H2499.34V178.704H2369.51V222.549H2514.78V266.088H2296.65V55Z" fill="#D2CDD6"/>
<path d="M2953.24 266.045L2885.37 182.292H2859.64V266.045H2785.91V55H2905.15C2920.16 55 2934.82 56.0502 2949.08 58.1506C2963.35 60.251 2976.17 63.7516 2987.5 68.74C2998.83 73.7284 3007.89 80.2483 3014.67 88.4311C3021.46 96.57 3024.83 106.722 3024.83 118.843C3024.83 133.152 3019.09 145.185 3007.59 154.899C2996.12 164.657 2980.19 171.615 2959.89 175.772L3041.59 266.088H2953.28L2953.24 266.045ZM2950.13 119.674C2950.13 114.73 2948.56 110.704 2945.49 107.597C2942.39 104.534 2938.4 102.127 2933.5 100.464C2928.6 98.7579 2923.13 97.6202 2917.09 97.0514C2911.06 96.4388 2905.19 96.1762 2899.59 96.1762H2859.2V145.36H2895.13C2901.34 145.36 2907.69 145.01 2914.21 144.31C2920.73 143.61 2926.63 142.385 2931.93 140.591C2937.27 138.796 2941.6 136.215 2945.01 132.845C2948.43 129.476 2950.13 125.1 2950.13 119.718V119.674Z" fill="#D2CDD6"/>
<path d="M3310.43 266.045V55H3386.4V266.045H3310.43Z" fill="#D2CDD6"/>
<path d="M3732.13 98.5391V142.035H3853.12V184.086H3732.13V266.045H3657.52V55H3863.27V98.5391H3732.13Z" fill="#D2CDD6"/>
<path d="M4299.5 176.603V266.045H4224.01V176.603L4106.57 55H4197.98L4264.66 133.108L4331.35 55H4419.65L4299.54 176.603H4299.5Z" fill="#D2CDD6"/>
<path d="M1749.39 633V402.58H1787.26L1871.85 594.812L1954.84 402.58H1991.09V633H1964.5V443.991L1882.65 633H1859.12L1775.98 443.991V633H1749.39Z" fill="#D2CDD6"/>
<path d="M2168.24 517.146C2168.24 579.343 2196.33 610.441 2252.51 610.441C2307.51 610.441 2335.01 579.343 2335.01 517.146C2335.01 455.808 2307.51 425.139 2252.51 425.139C2196.33 425.139 2168.24 455.808 2168.24 517.146ZM2136.82 518.112C2136.82 440.017 2175.38 400.969 2252.51 400.969C2328.46 400.969 2366.43 440.017 2366.43 518.112C2366.43 595.778 2328.46 634.611 2252.51 634.611C2175.38 634.611 2136.82 595.778 2136.82 518.112Z" fill="#D2CDD6"/>
<path d="M2535.69 517.146C2535.69 579.343 2563.78 610.441 2619.96 610.441C2674.96 610.441 2702.46 579.343 2702.46 517.146C2702.46 455.808 2674.96 425.139 2619.96 425.139C2563.78 425.139 2535.69 455.808 2535.69 517.146ZM2504.27 518.112C2504.27 440.017 2542.83 400.969 2619.96 400.969C2695.91 400.969 2733.88 440.017 2733.88 518.112C2733.88 595.778 2695.91 634.611 2619.96 634.611C2542.83 634.611 2504.27 595.778 2504.27 518.112Z" fill="#D2CDD6"/>
<path d="M2879.77 633V402.58H2909.58L3050.57 588.205V402.58H3078.77V633H3048.96L2907.97 445.764V633H2879.77Z" fill="#D2CDD6"/>
<path d="M3229.49 624.943V597.551C3253.66 606.145 3279.77 610.441 3307.8 610.441C3347.44 610.441 3367.26 595.939 3367.26 566.936C3367.26 542.229 3352.65 529.875 3323.43 529.875H3293.79C3245.55 529.875 3221.44 508.928 3221.44 467.033C3221.44 422.99 3252.32 400.969 3314.09 400.969C3340.94 400.969 3365.92 404.191 3389.02 410.637V438.029C3365.92 429.436 3340.94 425.139 3314.09 425.139C3272.19 425.139 3251.25 439.104 3251.25 467.033C3251.25 491.74 3265.43 504.094 3293.79 504.094H3323.43C3372.53 504.094 3397.07 525.041 3397.07 566.936C3397.07 612.053 3367.32 634.611 3307.8 634.611C3279.77 634.611 3253.66 631.389 3229.49 624.943Z" fill="#D2CDD6"/>
<path d="M3539.58 633V402.58H3569.39V504.094H3705.54V402.58H3735.35V633H3705.54V528.264H3569.39V633H3539.58Z" fill="#D2CDD6"/>
<path d="M3912.67 517.146C3912.67 579.343 3940.76 610.441 3996.94 610.441C4051.94 610.441 4079.44 579.343 4079.44 517.146C4079.44 455.808 4051.94 425.139 3996.94 425.139C3940.76 425.139 3912.67 455.808 3912.67 517.146ZM3881.24 518.112C3881.24 440.017 3919.81 400.969 3996.94 400.969C4072.88 400.969 4110.86 440.017 4110.86 518.112C4110.86 595.778 4072.88 634.611 3996.94 634.611C3919.81 634.611 3881.24 595.778 3881.24 518.112Z" fill="#D2CDD6"/>
<path d="M4412.24 402.58V426.75H4339.73V633H4309.92V426.75H4237.41V402.58H4412.24Z" fill="#D2CDD6"/>
<path d="M5785.73 400.074H5799.89L5804.77 420.826H5839.44V439.137H5808.31V512.745C5808.31 524.708 5813.48 530.689 5823.81 530.689H5839.44V549H5817.95C5796.47 549 5785.73 537.485 5785.73 514.454V400.074Z" fill="#D2CDD6"/>
<path d="M5731.92 545.338C5721.34 547.779 5709.95 549 5697.74 549C5652.17 549 5629.38 526.824 5629.38 482.472C5629.38 441.375 5652.17 420.826 5697.74 420.826C5709.95 420.826 5721.34 422.047 5731.92 424.488V442.799C5721.34 440.357 5709.54 439.137 5696.52 439.137C5666.81 439.137 5651.96 453.582 5651.96 482.472C5651.96 514.617 5666.81 530.689 5696.52 530.689C5709.54 530.689 5721.34 529.469 5731.92 527.027V545.338Z" fill="#D2CDD6"/>
<path d="M5525.4 420.826C5561.86 420.826 5580.09 438.852 5580.09 474.903C5580.09 480.03 5579.72 485.523 5578.99 491.383H5489.02C5489.02 517.587 5504.32 530.689 5534.92 530.689C5549.49 530.689 5562.43 529.062 5573.74 525.807V544.117C5562.43 547.372 5548.67 549 5532.48 549C5488.45 549 5466.44 527.149 5466.44 483.448C5466.44 441.7 5486.09 420.826 5525.4 420.826ZM5489.02 472.584H5558.36C5557.87 450.123 5546.88 438.893 5525.4 438.893C5502.61 438.893 5490.49 450.123 5489.02 472.584Z" fill="#D2CDD6"/>
<path d="M5408.36 420.826V539.234C5408.36 565.113 5402.05 584.563 5389.44 597.584L5370.52 584.767C5380.69 573.78 5385.78 558.603 5385.78 539.234V420.826H5408.36ZM5408.36 374.439V395.802H5385.78V374.439H5408.36Z" fill="#D2CDD6"/>
<path d="M5228.33 484.425C5228.33 515.268 5241.15 530.689 5266.78 530.689C5292.42 530.689 5305.23 515.268 5305.23 484.425C5305.23 454.233 5292.42 439.137 5266.78 439.137C5241.15 439.137 5228.33 454.233 5228.33 484.425ZM5205.75 484.913C5205.75 442.188 5226.09 420.826 5266.78 420.826C5307.47 420.826 5327.82 442.188 5327.82 484.913C5327.82 527.556 5307.47 548.878 5266.78 548.878C5226.25 548.878 5205.91 527.556 5205.75 484.913Z" fill="#D2CDD6"/>
<path d="M5104.33 549V420.826H5119.59L5123.62 437.184C5134.85 426.279 5148.36 420.826 5164.14 420.826V439.625C5148.85 439.625 5136.43 445.037 5126.91 455.86V549H5104.33Z" fill="#D2CDD6"/>
<path d="M4956.89 522.877C4965.76 527.271 4975.65 529.469 4986.56 529.469C5013.17 529.469 5026.47 513.478 5026.47 481.495C5026.47 453.582 5013.25 439.625 4986.8 439.625C4975.41 439.625 4965.44 440.602 4956.89 442.555V522.877ZM4934.31 426.075C4951.32 422.576 4968.9 420.826 4987.04 420.826C5028.14 420.826 5048.69 441.131 5048.69 481.739C5048.69 526.58 5028.02 549 4986.68 549C4976.42 549 4966.5 546.966 4956.89 542.896V595.387H4934.31V426.075Z" fill="#D2CDD6"/>
<path d="M5368.69 230.304C5368.69 204.018 5386.02 190.875 5420.69 190.875C5431.84 190.875 5442.99 191.689 5454.13 193.316V181.231C5454.13 166.502 5442.62 159.137 5419.59 159.137C5406.41 159.137 5392.9 161.171 5379.06 165.24V146.93C5392.9 142.861 5406.41 140.826 5419.59 140.826C5457.67 140.826 5476.72 154.091 5476.72 180.621V269H5464.02L5456.21 256.305C5443.43 264.768 5429.52 269 5414.46 269C5383.94 269 5368.69 256.101 5368.69 230.304ZM5420.69 209.186C5401.07 209.186 5391.27 216.103 5391.27 229.938C5391.27 243.772 5399 250.689 5414.46 250.689C5430.09 250.689 5443.31 246.539 5454.13 238.238V211.627C5442.99 209.999 5431.84 209.186 5420.69 209.186Z" fill="#D2CDD6"/>
<path d="M5267.27 120.074H5281.43L5286.31 140.826H5320.98V159.137H5289.85V232.745C5289.85 244.708 5295.02 250.689 5305.36 250.689H5320.98V269H5299.5C5278.01 269 5267.27 257.485 5267.27 234.454V120.074Z" fill="#D2CDD6"/>
<path d="M5157.19 140.826C5193.65 140.826 5211.87 158.852 5211.87 194.903C5211.87 200.03 5211.51 205.523 5210.78 211.383H5120.81C5120.81 237.587 5136.11 250.689 5166.71 250.689C5181.27 250.689 5194.21 249.062 5205.53 245.807V264.117C5194.21 267.372 5180.46 269 5164.27 269C5120.24 269 5098.23 247.149 5098.23 203.448C5098.23 161.7 5117.88 140.826 5157.19 140.826ZM5120.81 192.584H5190.15C5189.66 170.123 5178.67 158.893 5157.19 158.893C5134.4 158.893 5122.27 170.123 5120.81 192.584Z" fill="#D2CDD6"/>
<path d="M4956.89 246.661C4964.3 249.021 4973.29 250.201 4983.87 250.201C5012.35 250.201 5026.6 233.966 5026.6 201.495C5026.6 174.07 5013.7 160.357 4987.9 160.357C4976.18 160.357 4965.85 162.555 4956.89 166.949V246.661ZM4934.31 94.4395H4956.89V146.93C4966.58 142.861 4976.95 140.826 4988.02 140.826C5028.55 140.826 5048.81 161.334 5048.81 202.35C5048.81 246.783 5027.53 269 4984.97 269C4966.58 269 4949.69 267.25 4934.31 263.751V94.4395Z" fill="#D2CDD6"/>
<path fill-rule="evenodd" clip-rule="evenodd" d="M5799.89 400.074H5785.73V514.454C5785.73 537.485 5796.47 549 5817.95 549H5839.44V530.689H5823.81C5813.48 530.689 5808.31 524.708 5808.31 512.745V439.137H5839.44V420.826H5804.77L5799.89 400.074ZM5808.73 415.826L5803.85 395.074H5780.73V514.454C5780.73 526.657 5783.57 536.74 5790.13 543.774C5796.75 550.873 5806.35 554 5817.95 554H5844.44V525.689H5823.81C5819.62 525.689 5817.33 524.511 5815.97 522.935C5814.49 521.219 5813.31 518.12 5813.31 512.745V444.137H5844.44V415.826H5808.73Z" fill="#D2CDD6"/>
<path fill-rule="evenodd" clip-rule="evenodd" d="M5697.74 549C5709.95 549 5721.34 547.779 5731.92 545.338V527.027C5730.28 527.405 5728.61 527.754 5726.92 528.073C5717.66 529.817 5707.52 530.689 5696.52 530.689C5666.81 530.689 5651.96 514.617 5651.96 482.472C5651.96 453.582 5666.81 439.137 5696.52 439.137C5707.52 439.137 5717.66 440.009 5726.92 441.753C5728.61 442.072 5730.28 442.421 5731.92 442.799V424.488C5721.34 422.047 5709.95 420.826 5697.74 420.826C5652.17 420.826 5629.38 441.375 5629.38 482.472C5629.38 526.824 5652.17 549 5697.74 549ZM5736.92 549.315L5733.04 550.21C5722.05 552.746 5710.28 554 5697.74 554C5674.21 554 5655.65 548.278 5642.98 535.951C5630.29 523.6 5624.38 505.453 5624.38 482.472C5624.38 461.011 5630.35 444.039 5643.12 432.524C5655.79 421.099 5674.3 415.826 5697.74 415.826C5710.28 415.826 5722.05 417.08 5733.04 419.616L5736.92 420.511V449.084L5730.79 447.671C5720.65 445.329 5709.23 444.137 5696.52 444.137C5682.4 444.137 5672.74 447.57 5666.59 453.555C5660.46 459.514 5656.96 468.833 5656.96 482.472C5656.96 497.867 5660.53 508.482 5666.77 515.242C5672.95 521.927 5682.54 525.689 5696.52 525.689C5709.23 525.689 5720.65 524.497 5730.79 522.155L5736.92 520.742V549.315Z" fill="#D2CDD6"/>
<path fill-rule="evenodd" clip-rule="evenodd" d="M5580.09 474.903C5580.09 438.852 5561.86 420.826 5525.4 420.826C5486.09 420.826 5466.44 441.7 5466.44 483.448C5466.44 527.149 5488.45 549 5532.48 549C5548.67 549 5562.43 547.372 5573.74 544.117V525.807C5572.11 526.276 5570.44 526.712 5568.74 527.115C5558.66 529.498 5547.39 530.689 5534.92 530.689C5506.33 530.689 5491.1 519.254 5489.22 496.383C5489.09 494.773 5489.02 493.106 5489.02 491.383H5578.99C5579.72 485.523 5580.09 480.03 5580.09 474.903ZM5494.24 496.383H5583.4L5583.95 492.003C5584.7 485.968 5585.09 480.266 5585.09 474.903C5585.09 456.093 5580.33 441.069 5569.93 430.79C5559.55 420.521 5544.39 415.826 5525.4 415.826C5504.9 415.826 5488.62 421.285 5477.54 433.054C5466.51 444.767 5461.44 461.876 5461.44 483.448C5461.44 506.079 5467.14 523.968 5479.43 536.161C5491.7 548.346 5509.7 554 5532.48 554C5548.98 554 5563.23 552.345 5575.12 548.922L5578.74 547.881V519.165L5572.36 521.002C5561.59 524.101 5549.13 525.689 5534.92 525.689C5520.22 525.689 5510.13 522.525 5503.75 517.065C5498.42 512.501 5495.09 505.809 5494.24 496.383ZM5489.02 472.584C5489.14 470.85 5489.31 469.184 5489.55 467.584C5492.42 448.456 5504.37 438.893 5525.4 438.893C5545.23 438.893 5556.11 448.456 5558.06 467.584C5558.22 469.184 5558.32 470.85 5558.36 472.584H5489.02ZM5494.61 467.584H5553.03C5552.17 459.861 5549.73 454.441 5546.18 450.812C5541.93 446.469 5535.3 443.893 5525.4 443.893C5514.78 443.893 5507.45 446.504 5502.61 450.984C5498.66 454.647 5495.87 460.027 5494.61 467.584Z" fill="#D2CDD6"/>
<path fill-rule="evenodd" clip-rule="evenodd" d="M5408.36 539.234V420.826H5385.78V539.234C5385.78 556.432 5381.77 570.325 5373.75 580.915C5372.73 582.251 5371.66 583.535 5370.52 584.767L5389.44 597.584C5402.05 584.563 5408.36 565.113 5408.36 539.234ZM5408.36 374.439H5385.78V395.802H5408.36V374.439ZM5413.36 415.826V539.234C5413.36 565.855 5406.87 586.774 5393.03 601.063L5390.11 604.078L5362.89 585.641L5366.85 581.37C5375.94 571.554 5380.78 557.725 5380.78 539.234V415.826H5413.36ZM5413.36 369.439V400.802H5380.78V369.439H5413.36Z" fill="#D2CDD6"/>
<path fill-rule="evenodd" clip-rule="evenodd" d="M5266.78 530.689C5241.15 530.689 5228.33 515.268 5228.33 484.425C5228.33 454.233 5241.15 439.137 5266.78 439.137C5292.42 439.137 5305.23 454.233 5305.23 484.425C5305.23 515.268 5292.42 530.689 5266.78 530.689ZM5266.78 420.826C5226.09 420.826 5205.75 442.188 5205.75 484.913C5205.91 527.556 5226.25 548.878 5266.78 548.878C5307.47 548.878 5327.82 527.556 5327.82 484.913C5327.82 442.188 5307.47 420.826 5266.78 420.826ZM5200.75 484.923V484.913C5200.75 462.839 5206 445.356 5217.38 433.4C5228.81 421.398 5245.6 415.826 5266.78 415.826C5287.96 415.826 5304.75 421.398 5316.18 433.4C5327.56 445.356 5332.82 462.839 5332.82 484.913C5332.82 506.948 5327.56 524.403 5316.17 536.338C5304.74 548.318 5287.96 553.878 5266.78 553.878C5245.68 553.878 5228.94 548.314 5217.51 536.338C5206.13 524.41 5200.83 506.964 5200.75 484.932V484.923ZM5241.79 515.927C5246.99 522.191 5255 525.689 5266.78 525.689C5278.56 525.689 5286.57 522.191 5291.77 515.927C5297.13 509.487 5300.23 499.278 5300.23 484.425C5300.23 469.918 5297.14 459.97 5291.81 453.695C5286.61 447.576 5278.59 444.137 5266.78 444.137C5254.97 444.137 5246.95 447.576 5241.75 453.695C5236.43 459.97 5233.33 469.918 5233.33 484.425C5233.33 499.278 5236.43 509.487 5241.79 515.927Z" fill="#D2CDD6"/>
<path fill-rule="evenodd" clip-rule="evenodd" d="M5104.33 549H5126.91V455.86C5136.43 445.037 5148.85 439.625 5164.14 439.625V420.826C5162.45 420.826 5160.79 420.889 5159.14 421.014C5147.36 421.915 5136.92 426.052 5127.84 433.426C5126.4 434.597 5124.99 435.85 5123.62 437.184L5119.59 420.826H5104.33V549ZM5126.53 428.104L5123.51 415.826H5099.33V554H5131.91V457.8C5140.24 449.034 5150.85 444.625 5164.14 444.625H5169.14V415.826H5164.14C5149.96 415.826 5137.37 419.934 5126.53 428.104Z" fill="#D2CDD6"/>
<path fill-rule="evenodd" clip-rule="evenodd" d="M4986.56 529.469C4975.65 529.469 4965.76 527.271 4956.89 522.877V442.555C4965.44 440.602 4975.41 439.625 4986.8 439.625C5013.25 439.625 5026.47 453.582 5026.47 481.495C5026.47 513.478 5013.17 529.469 4986.56 529.469ZM4961.89 446.631C4969.12 445.306 4977.41 444.625 4986.8 444.625C4999.18 444.625 5007.57 447.879 5012.93 453.532C5018.33 459.235 5021.47 468.244 5021.47 481.495C5021.47 496.917 5018.25 507.552 5012.65 514.277C5007.2 520.827 4998.83 524.469 4986.56 524.469C4977.49 524.469 4969.29 522.852 4961.89 519.68V446.631ZM4987.04 420.826C4968.9 420.826 4951.32 422.576 4934.31 426.075V595.387H4956.89V542.896C4958.55 543.599 4960.22 544.24 4961.89 544.821C4969.93 547.607 4978.19 549 4986.68 549C5028.02 549 5048.69 526.58 5048.69 481.739C5048.69 441.131 5028.14 420.826 4987.04 420.826ZM4961.89 550.094C4969.94 552.695 4978.2 554 4986.68 554C5008.23 554 5025.28 548.137 5036.86 535.574C5048.38 523.087 5053.69 504.834 5053.69 481.739C5053.69 460.649 5048.35 443.916 5036.79 432.498C5025.25 421.09 5008.35 415.826 4987.04 415.826C4968.57 415.826 4950.66 417.607 4933.3 421.178L4929.31 421.999V600.387H4961.89V550.094Z" fill="#D2CDD6"/>
<path fill-rule="evenodd" clip-rule="evenodd" d="M5420.69 190.875C5386.02 190.875 5368.69 204.018 5368.69 230.304C5368.69 256.101 5383.94 269 5414.46 269C5427.86 269 5440.36 265.646 5451.96 258.939C5453.39 258.112 5454.81 257.234 5456.21 256.305L5464.02 269H5476.72V180.621C5476.72 154.091 5457.67 140.826 5419.59 140.826C5406.41 140.826 5392.9 142.861 5379.06 146.93V165.24C5380.73 164.749 5382.4 164.287 5384.06 163.855C5396.16 160.709 5408 159.137 5419.59 159.137C5442.62 159.137 5454.13 166.502 5454.13 181.231V193.316C5452.47 193.073 5450.8 192.848 5449.13 192.641C5439.65 191.464 5430.17 190.875 5420.69 190.875ZM5449.13 187.603C5439.66 186.451 5430.17 185.875 5420.69 185.875C5402.86 185.875 5388.58 189.229 5378.67 196.748C5368.49 204.465 5363.69 215.961 5363.69 230.304C5363.69 244.214 5367.84 255.483 5376.9 263.144C5385.8 270.669 5398.62 274 5414.46 274C5428.81 274 5442.21 270.384 5454.58 263.199L5461.23 274H5481.72V180.621C5481.72 165.991 5476.36 154.384 5465.29 146.672C5454.55 139.189 5439.06 135.826 5419.59 135.826C5405.89 135.826 5391.9 137.942 5377.65 142.133L5374.06 143.189V171.923L5380.47 170.037C5393.89 166.09 5406.93 164.137 5419.59 164.137C5430.73 164.137 5438.23 165.947 5442.8 168.873C5447 171.554 5449.13 175.414 5449.13 181.231V187.603ZM5391.27 229.938C5391.27 216.103 5401.07 209.186 5420.69 209.186C5431.84 209.186 5442.99 209.999 5454.13 211.627V238.238C5443.31 246.539 5430.09 250.689 5414.46 250.689C5399 250.689 5391.27 243.772 5391.27 229.938ZM5449.13 235.702V215.991C5439.65 214.787 5430.17 214.186 5420.69 214.186C5411.32 214.186 5405.18 215.866 5401.51 218.459C5398.15 220.828 5396.27 224.359 5396.27 229.938C5396.27 235.931 5397.92 239.554 5400.4 241.775C5402.99 244.092 5407.37 245.689 5414.46 245.689C5428.19 245.689 5439.67 242.298 5449.13 235.702Z" fill="#D2CDD6"/>
<path fill-rule="evenodd" clip-rule="evenodd" d="M5281.43 120.074H5267.27V234.454C5267.27 257.485 5278.01 269 5299.5 269H5320.98V250.689H5305.36C5295.02 250.689 5289.85 244.708 5289.85 232.745V159.137H5320.98V140.826H5286.31L5281.43 120.074ZM5290.27 135.826L5285.39 115.074H5262.27V234.454C5262.27 246.657 5265.11 256.74 5271.67 263.774C5278.29 270.873 5287.89 274 5299.5 274H5325.98V245.689H5305.36C5301.16 245.689 5298.87 244.511 5297.51 242.935C5296.03 241.219 5294.85 238.12 5294.85 232.745V164.137H5325.98V135.826H5290.27Z" fill="#D2CDD6"/>
<path fill-rule="evenodd" clip-rule="evenodd" d="M5211.87 194.903C5211.87 158.852 5193.65 140.826 5157.19 140.826C5117.88 140.826 5098.23 161.7 5098.23 203.448C5098.23 247.149 5120.24 269 5164.27 269C5180.46 269 5194.21 267.372 5205.53 264.117V245.807C5203.89 246.277 5202.23 246.712 5200.53 247.114C5190.45 249.498 5179.17 250.689 5166.71 250.689C5138.12 250.689 5122.89 239.254 5121.01 216.383C5120.88 214.773 5120.81 213.106 5120.81 211.383H5210.78C5211.51 205.523 5211.87 200.03 5211.87 194.903ZM5126.03 216.383H5215.19L5215.74 212.003C5216.49 205.968 5216.87 200.266 5216.87 194.903C5216.87 176.093 5212.11 161.069 5201.72 150.79C5191.33 140.521 5176.17 135.826 5157.19 135.826C5136.68 135.826 5120.41 141.285 5109.33 153.054C5098.3 164.767 5093.23 181.876 5093.23 203.448C5093.23 226.079 5098.93 243.968 5111.21 256.161C5123.49 268.346 5141.49 274 5164.27 274C5180.77 274 5195.02 272.345 5206.91 268.922L5210.53 267.881V239.165L5204.14 241.002C5193.37 244.101 5180.91 245.689 5166.71 245.689C5152.01 245.689 5141.91 242.525 5135.54 237.065C5130.21 232.501 5126.88 225.809 5126.03 216.383ZM5120.81 192.584C5120.92 190.85 5121.1 189.184 5121.34 187.584C5124.21 168.456 5136.16 158.893 5157.19 158.893C5177.01 158.893 5187.9 168.456 5189.84 187.584C5190.01 189.184 5190.11 190.85 5190.15 192.584H5120.81ZM5126.4 187.584H5184.82C5183.95 179.861 5181.52 174.441 5177.97 170.812C5173.72 166.469 5167.09 163.893 5157.19 163.893C5146.57 163.893 5139.24 166.504 5134.4 170.984C5130.45 174.647 5127.65 180.027 5126.4 187.584Z" fill="#D2CDD6"/>
<path fill-rule="evenodd" clip-rule="evenodd" d="M4929.31 89.4395H4961.89V139.767C4970.19 137.135 4978.9 135.826 4988.02 135.826C5009.07 135.826 5025.77 141.157 5037.17 152.693C5048.56 164.217 5053.81 181.086 5053.81 202.35C5053.81 225.285 5048.32 243.413 5036.46 255.796C5024.56 268.219 5007.08 274 4984.97 274C4966.26 274 4949 272.221 4933.2 268.626L4929.31 267.741V89.4395ZM4961.89 145.031C4960.21 145.605 4958.54 146.238 4956.89 146.93V94.4395H4934.31V263.751C4949.69 267.25 4966.58 269 4984.97 269C5027.53 269 5048.81 246.783 5048.81 202.35C5048.81 161.334 5028.55 140.826 4988.02 140.826C4978.84 140.826 4970.13 142.228 4961.89 145.031ZM4961.89 242.88C4968.02 244.402 4975.32 245.201 4983.87 245.201C4997.16 245.201 5006.26 241.444 5012.16 234.727C5018.16 227.886 5021.6 217.109 5021.6 201.495C5021.6 188.48 5018.53 179.648 5013.28 174.068C5008.08 168.545 4999.95 165.357 4987.9 165.357C4978.05 165.357 4969.42 166.994 4961.89 170.164V242.88ZM4956.89 246.661C4964.3 249.021 4973.29 250.201 4983.87 250.201C5012.35 250.201 5026.6 233.966 5026.6 201.495C5026.6 174.07 5013.7 160.357 4987.9 160.357C4976.18 160.357 4965.85 162.555 4956.89 166.949V246.661Z" fill="#D2CDD6"/>
<path fill-rule="evenodd" clip-rule="evenodd" d="M4704 0V690H4684V0H4704Z" fill="#D2CDD6"/>
</svg>
