<svg width="500" height="60" viewBox="0 0 500 60" fill="none" xmlns="http://www.w3.org/2000/svg">
<path d="M54.9292 30.1652L30.364 5.6C29.1735 4.40955 27.2381 4.40955 26.0476 5.6L1.46747 30.1764C0.527842 31.1161 0 32.3889 0 33.7141V54.1464L0.598969 52.473C1.03697 51.2452 1.74075 50.1333 2.66167 49.2124L27.2493 24.6285C27.7772 24.1006 28.6307 24.1006 29.1585 24.6285L53.6863 49.1263C54.5735 50.0135 55.2623 51.0767 55.7041 52.2522L56.3966 54.0903V33.7066C56.3966 32.3776 55.8688 31.1086 54.9292 30.1689V30.1652Z" fill="#D2CDD6"/>
<path d="M88.7072 4.70533L90.0287 5.0984C90.74 5.30804 91.2267 5.95942 91.2267 6.70064V54.1464H102.862C104.34 54.1464 105.538 52.9485 105.538 51.4698V7.38197C105.538 5.90327 104.34 4.70533 102.862 4.70533H88.7072Z" fill="#D2CDD6"/>
<path d="M73.8528 35.4736C77.1919 35.4736 79.8987 32.7668 79.8987 29.4278C79.8987 26.0888 77.1919 23.3819 73.8528 23.3819C70.5138 23.3819 67.807 26.0888 67.807 29.4278C67.807 32.7668 70.5138 35.4736 73.8528 35.4736Z" fill="#D2CDD6"/>
<path d="M122.89 35.4736C126.229 35.4736 128.935 32.7668 128.935 29.4278C128.935 26.0888 126.229 23.3819 122.89 23.3819C119.551 23.3819 116.844 26.0888 116.844 29.4278C116.844 32.7668 119.551 35.4736 122.89 35.4736Z" fill="#D2CDD6"/>
<path d="M165.354 22.7605H158.896L148.774 4.70533H156.025L162.221 17.5083H162.371L168.529 4.70533H175.668L165.354 22.7605Z" fill="#D2CDD6"/>
<path d="M196.482 4.70533H214.462V8.37775H202.715V11.7956H213.822V15.2884H202.715V19.0394H215.143V22.7642H196.482V4.70533Z" fill="#D2CDD6"/>
<path d="M252.654 22.7605L246.848 15.5953H244.646V22.7605H238.338V4.70533H248.54C249.824 4.70533 251.078 4.79517 252.298 4.97487C253.519 5.15456 254.615 5.45404 255.585 5.8808C256.555 6.30757 257.329 6.86536 257.91 7.5654C258.49 8.26171 258.778 9.13021 258.778 10.1672C258.778 11.3913 258.288 12.4208 257.303 13.2519C256.322 14.0867 254.96 14.6819 253.223 15.0375L260.212 22.7642H252.658L252.654 22.7605ZM252.388 10.2383C252.388 9.81528 252.253 9.47087 251.991 9.20508C251.725 8.94303 251.385 8.73714 250.965 8.59488C250.546 8.44888 250.078 8.35155 249.562 8.30288C249.045 8.25048 248.543 8.22801 248.064 8.22801H244.609V12.4358H247.682C248.214 12.4358 248.757 12.4058 249.315 12.3459C249.872 12.286 250.378 12.1812 250.831 12.0277C251.287 11.8742 251.658 11.6534 251.95 11.3651C252.242 11.0769 252.388 10.7025 252.388 10.242V10.2383Z" fill="#D2CDD6"/>
<path d="M283.212 22.7605V4.70533H289.711V22.7605H283.212Z" fill="#D2CDD6"/>
<path d="M319.289 8.43016V12.1513H329.64V15.7488H319.289V22.7605H312.906V4.70533H330.508V8.43016H319.289Z" fill="#D2CDD6"/>
<path d="M367.828 15.1087V22.7605H361.37V15.1087L351.323 4.70533H359.143L364.848 11.3876L370.553 4.70533H378.108L367.832 15.1087H367.828Z" fill="#D2CDD6"/>
<path d="M149.663 54.1541V34.4413H152.903L160.14 50.887L167.239 34.4413H170.341V54.1541H168.066V37.9841L161.063 54.1541H159.051L151.938 37.9841V54.1541H149.663Z" fill="#D2CDD6"/>
<path d="M185.496 44.2425C185.496 49.5636 187.899 52.2241 192.706 52.2241C197.411 52.2241 199.764 49.5636 199.764 44.2425C199.764 38.995 197.411 36.3712 192.706 36.3712C187.899 36.3712 185.496 38.995 185.496 44.2425ZM182.808 44.3253C182.808 37.6441 186.107 34.3035 192.706 34.3035C199.203 34.3035 202.452 37.6441 202.452 44.3253C202.452 50.9697 199.203 54.2919 192.706 54.2919C186.107 54.2919 182.808 50.9697 182.808 44.3253Z" fill="#D2CDD6"/>
<path d="M216.932 44.2425C216.932 49.5636 219.335 52.2241 224.141 52.2241C228.847 52.2241 231.199 49.5636 231.199 44.2425C231.199 38.995 228.847 36.3712 224.141 36.3712C219.335 36.3712 216.932 38.995 216.932 44.2425ZM214.244 44.3253C214.244 37.6441 217.543 34.3035 224.141 34.3035C230.639 34.3035 233.888 37.6441 233.888 44.3253C233.888 50.9697 230.639 54.2919 224.141 54.2919C217.543 54.2919 214.244 50.9697 214.244 44.3253Z" fill="#D2CDD6"/>
<path d="M246.369 54.1541V34.4413H248.919L260.981 50.3218V34.4413H263.393V54.1541H260.843L248.781 38.1357V54.1541H246.369Z" fill="#D2CDD6"/>
<path d="M276.288 53.4648V51.1213C278.356 51.8565 280.589 52.2241 282.987 52.2241C286.379 52.2241 288.074 50.9835 288.074 48.5021C288.074 46.3884 286.824 45.3316 284.325 45.3316H281.788C277.662 45.3316 275.599 43.5395 275.599 39.9554C275.599 36.1874 278.241 34.3035 283.525 34.3035C285.823 34.3035 287.959 34.5792 289.935 35.1306V37.474C287.959 36.7388 285.823 36.3712 283.525 36.3712C279.941 36.3712 278.149 37.5659 278.149 39.9554C278.149 42.0691 279.362 43.1259 281.788 43.1259H284.325C288.524 43.1259 290.624 44.918 290.624 48.5021C290.624 52.362 288.079 54.2919 282.987 54.2919C280.589 54.2919 278.356 54.0162 276.288 53.4648Z" fill="#D2CDD6"/>
<path d="M302.816 54.1541V34.4413H305.366V43.1259H317.015V34.4413H319.565V54.1541H317.015V45.1937H305.366V54.1541H302.816Z" fill="#D2CDD6"/>
<path d="M334.734 44.2425C334.734 49.5636 337.137 52.2241 341.944 52.2241C346.649 52.2241 349.002 49.5636 349.002 44.2425C349.002 38.995 346.649 36.3712 341.944 36.3712C337.137 36.3712 334.734 38.995 334.734 44.2425ZM332.046 44.3253C332.046 37.6441 335.345 34.3035 341.944 34.3035C348.441 34.3035 351.69 37.6441 351.69 44.3253C351.69 50.9697 348.441 54.2919 341.944 54.2919C335.345 54.2919 332.046 50.9697 332.046 44.3253Z" fill="#D2CDD6"/>
<path d="M377.474 34.4413V36.5091H371.27V54.1541H368.72V36.5091H362.517V34.4413H377.474Z" fill="#D2CDD6"/>
<path d="M494.977 34.2269H496.189L496.606 36.0023H499.572V37.5688H496.909V43.8661C496.909 44.8895 497.351 45.4012 498.236 45.4012H499.572V46.9677H497.734C495.896 46.9677 494.977 45.9826 494.977 44.0123V34.2269Z" fill="#D2CDD6"/>
<path d="M490.374 46.6544C489.469 46.8633 488.494 46.9677 487.45 46.9677C483.551 46.9677 481.601 45.0705 481.601 41.2761C481.601 37.7602 483.551 36.0023 487.45 36.0023C488.494 36.0023 489.469 36.1067 490.374 36.3156V37.8821C489.469 37.6732 488.459 37.5688 487.345 37.5688C484.804 37.5688 483.533 38.8046 483.533 41.2761C483.533 44.0262 484.804 45.4012 487.345 45.4012C488.459 45.4012 489.469 45.2968 490.374 45.0879V46.6544Z" fill="#D2CDD6"/>
<path d="M472.706 36.0023C475.825 36.0023 477.384 37.5444 477.384 40.6287C477.384 41.0673 477.353 41.5372 477.29 42.0385H469.594C469.594 44.2803 470.903 45.4012 473.52 45.4012C474.767 45.4012 475.874 45.262 476.841 44.9835V46.55C475.874 46.8285 474.697 46.9677 473.312 46.9677C469.545 46.9677 467.662 45.0984 467.662 41.3597C467.662 37.7881 469.343 36.0023 472.706 36.0023ZM469.594 40.4302H475.526C475.484 38.5087 474.544 37.5479 472.706 37.5479C470.756 37.5479 469.719 38.5087 469.594 40.4302Z" fill="#D2CDD6"/>
<path d="M462.693 36.0023V46.1323C462.693 48.3463 462.153 50.0102 461.074 51.1242L459.455 50.0276C460.326 49.0877 460.761 47.7893 460.761 46.1323V36.0023H462.693ZM462.693 32.0338V33.8614H460.761V32.0338H462.693Z" fill="#D2CDD6"/>
<path d="M447.291 41.4432C447.291 44.0819 448.388 45.4012 450.581 45.4012C452.774 45.4012 453.87 44.0819 453.87 41.4432C453.87 38.8603 452.774 37.5688 450.581 37.5688C448.388 37.5688 447.291 38.8603 447.291 41.4432ZM445.359 41.485C445.359 37.8299 447.1 36.0023 450.581 36.0023C454.062 36.0023 455.802 37.8299 455.802 41.485C455.802 45.1332 454.062 46.9573 450.581 46.9573C447.114 46.9573 445.373 45.1332 445.359 41.485Z" fill="#D2CDD6"/>
<path d="M436.683 46.9677V36.0023H437.988L438.333 37.4017C439.294 36.4687 440.449 36.0023 441.8 36.0023V37.6105C440.491 37.6105 439.429 38.0735 438.615 38.9995V46.9677H436.683Z" fill="#D2CDD6"/>
<path d="M424.069 44.7329C424.828 45.1088 425.674 45.2968 426.607 45.2968C428.884 45.2968 430.022 43.9287 430.022 41.1926C430.022 38.8046 428.891 37.6105 426.628 37.6105C425.653 37.6105 424.8 37.6941 424.069 37.8612V44.7329ZM422.137 36.4513C423.592 36.152 425.096 36.0023 426.649 36.0023C430.165 36.0023 431.923 37.7393 431.923 41.2135C431.923 45.0497 430.154 46.9677 426.618 46.9677C425.74 46.9677 424.891 46.7937 424.069 46.4456V50.9362H422.137V36.4513Z" fill="#D2CDD6"/>
<path d="M459.299 19.7028C459.299 17.454 460.782 16.3296 463.748 16.3296C464.701 16.3296 465.655 16.3993 466.609 16.5385V15.5046C466.609 14.2445 465.624 13.6144 463.654 13.6144C462.526 13.6144 461.37 13.7884 460.186 14.1365V12.57C461.37 12.2219 462.526 12.0479 463.654 12.0479C466.912 12.0479 468.541 13.1827 468.541 15.4524V23.0133H467.455L466.787 21.9272C465.694 22.6513 464.503 23.0133 463.215 23.0133C460.604 23.0133 459.299 21.9098 459.299 19.7028ZM463.748 17.8961C462.07 17.8961 461.231 18.4879 461.231 19.6715C461.231 20.8551 461.892 21.4468 463.215 21.4468C464.552 21.4468 465.683 21.0918 466.609 20.3816V18.105C465.655 17.9657 464.701 17.8961 463.748 17.8961Z" fill="#D2CDD6"/>
<path d="M450.622 10.2725H451.834L452.252 12.0479H455.218V13.6144H452.554V19.9117C452.554 20.9351 452.997 21.4468 453.881 21.4468H455.218V23.0133H453.379C451.541 23.0133 450.622 22.0282 450.622 20.0579V10.2725Z" fill="#D2CDD6"/>
<path d="M441.205 12.0479C444.324 12.0479 445.883 13.59 445.883 16.6743C445.883 17.1129 445.852 17.5828 445.789 18.0841H438.093C438.093 20.3259 439.401 21.4468 442.019 21.4468C443.266 21.4468 444.372 21.3076 445.34 21.0291V22.5956C444.372 22.8741 443.196 23.0133 441.81 23.0133C438.044 23.0133 436.161 21.144 436.161 17.4053C436.161 13.8337 437.842 12.0479 441.205 12.0479ZM438.093 16.4758H444.024C443.983 14.5543 443.043 13.5935 441.205 13.5935C439.255 13.5935 438.218 14.5543 438.093 16.4758Z" fill="#D2CDD6"/>
<path d="M424.069 21.1022C424.703 21.3041 425.472 21.4051 426.377 21.4051C428.814 21.4051 430.032 20.0161 430.032 17.2382C430.032 14.8919 428.929 13.7188 426.722 13.7188C425.719 13.7188 424.835 13.9068 424.069 14.2827V21.1022ZM422.137 8.07943H424.069V12.57C424.898 12.2219 425.786 12.0479 426.732 12.0479C430.2 12.0479 431.933 13.8024 431.933 17.3113C431.933 21.1127 430.113 23.0133 426.471 23.0133C424.898 23.0133 423.453 22.8636 422.137 22.5643V8.07943Z" fill="#D2CDD6"/>
<path fill-rule="evenodd" clip-rule="evenodd" d="M496.189 34.2269H494.977V44.0123C494.977 45.9826 495.896 46.9677 497.734 46.9677H499.572V45.4012H498.236C497.351 45.4012 496.909 44.8895 496.909 43.8661V37.5688H499.572V36.0023H496.606L496.189 34.2269ZM496.945 35.5745L496.527 33.7992H494.549V44.0123C494.549 45.0563 494.792 45.9189 495.354 46.5207C495.92 47.128 496.741 47.3955 497.734 47.3955H500V44.9735H498.236C497.877 44.9735 497.681 44.8726 497.564 44.7378C497.438 44.591 497.337 44.3259 497.337 43.8661V37.9965H500V35.5745H496.945Z" fill="#D2CDD6"/>
<path fill-rule="evenodd" clip-rule="evenodd" d="M487.45 46.9677C488.494 46.9677 489.469 46.8633 490.374 46.6544V45.0879C490.234 45.1203 490.091 45.1501 489.946 45.1774C489.154 45.3266 488.287 45.4012 487.345 45.4012C484.804 45.4012 483.533 44.0262 483.533 41.2761C483.533 38.8046 484.804 37.5688 487.345 37.5688C488.287 37.5688 489.154 37.6434 489.946 37.7926C490.091 37.8199 490.234 37.8497 490.374 37.8821V36.3156C489.469 36.1067 488.494 36.0023 487.45 36.0023C483.551 36.0023 481.601 37.7602 481.601 41.2761C481.601 45.0705 483.551 46.9677 487.45 46.9677ZM490.802 46.9947L490.47 47.0712C489.53 47.2882 488.522 47.3955 487.45 47.3955C485.437 47.3955 483.849 46.9059 482.765 45.8514C481.679 44.7947 481.174 43.2423 481.174 41.2761C481.174 39.4402 481.685 37.9881 482.777 37.0031C483.861 36.0256 485.445 35.5745 487.45 35.5745C488.522 35.5745 489.53 35.6818 490.47 35.8988L490.802 35.9753V38.4198L490.278 38.2989C489.41 38.0986 488.433 37.9965 487.345 37.9965C486.138 37.9965 485.311 38.2903 484.785 38.8023C484.26 39.3121 483.961 40.1094 483.961 41.2761C483.961 42.5933 484.266 43.5014 484.801 44.0797C485.329 44.6516 486.15 44.9735 487.345 44.9735C488.433 44.9735 489.41 44.8715 490.278 44.6711L490.802 44.5502V46.9947Z" fill="#D2CDD6"/>
<path fill-rule="evenodd" clip-rule="evenodd" d="M477.384 40.6287C477.384 37.5444 475.825 36.0023 472.706 36.0023C469.343 36.0023 467.662 37.7881 467.662 41.3597C467.662 45.0984 469.545 46.9677 473.312 46.9677C474.697 46.9677 475.874 46.8285 476.841 46.55V44.9835C476.702 45.0237 476.559 45.061 476.414 45.0954C475.551 45.2993 474.587 45.4012 473.52 45.4012C471.075 45.4012 469.772 44.4229 469.611 42.4663C469.599 42.3285 469.594 42.1859 469.594 42.0385H477.29C477.353 41.5372 477.384 41.0673 477.384 40.6287ZM470.04 42.4663H477.668L477.715 42.0916C477.779 41.5753 477.812 41.0874 477.812 40.6287C477.812 39.0194 477.405 37.7341 476.516 36.8547C475.627 35.9762 474.33 35.5745 472.706 35.5745C470.952 35.5745 469.559 36.0415 468.611 37.0484C467.668 38.0504 467.234 39.5142 467.234 41.3597C467.234 43.2958 467.722 44.8262 468.773 45.8693C469.823 46.9118 471.363 47.3955 473.312 47.3955C474.723 47.3955 475.942 47.2539 476.96 46.9611L477.269 46.872V44.4153L476.723 44.5724C475.802 44.8376 474.736 44.9735 473.52 44.9735C472.263 44.9735 471.399 44.7028 470.854 44.2357C470.398 43.8452 470.113 43.2727 470.04 42.4663ZM469.594 40.4302C469.603 40.2819 469.619 40.1393 469.639 40.0025C469.885 38.3661 470.907 37.5479 472.706 37.5479C474.402 37.5479 475.333 38.3661 475.5 40.0025C475.514 40.1393 475.522 40.2819 475.526 40.4302H469.594ZM470.072 40.0025H475.07C474.996 39.3418 474.787 38.8781 474.483 38.5676C474.12 38.1961 473.553 37.9756 472.706 37.9756C471.798 37.9756 471.17 38.199 470.756 38.5823C470.418 38.8957 470.179 39.356 470.072 40.0025Z" fill="#D2CDD6"/>
<path fill-rule="evenodd" clip-rule="evenodd" d="M462.693 46.1323V36.0023H460.761V46.1323C460.761 47.6036 460.418 48.7922 459.732 49.6981C459.645 49.8124 459.553 49.9223 459.455 50.0276L461.074 51.1242C462.153 50.0102 462.693 48.3463 462.693 46.1323ZM462.693 32.0338H460.761V33.8614H462.693V32.0338ZM463.121 35.5745V46.1323C463.121 48.4097 462.566 50.1994 461.381 51.4218L461.131 51.6797L458.803 50.1024L459.142 49.737C459.919 48.8972 460.333 47.7142 460.333 46.1323V35.5745H463.121ZM463.121 31.6061V34.2892H460.333V31.6061H463.121Z" fill="#D2CDD6"/>
<path fill-rule="evenodd" clip-rule="evenodd" d="M450.581 45.4012C448.388 45.4012 447.291 44.0819 447.291 41.4432C447.291 38.8603 448.388 37.5688 450.581 37.5688C452.774 37.5688 453.87 38.8603 453.87 41.4432C453.87 44.0819 452.774 45.4012 450.581 45.4012ZM450.581 36.0023C447.1 36.0023 445.359 37.8299 445.359 41.485C445.373 45.1332 447.114 46.9573 450.581 46.9573C454.062 46.9573 455.802 45.1332 455.802 41.485C455.802 37.8299 454.062 36.0023 450.581 36.0023ZM444.931 41.4858V41.485C444.931 39.5966 445.381 38.1008 446.355 37.078C447.333 36.0512 448.769 35.5745 450.581 35.5745C452.393 35.5745 453.829 36.0512 454.807 37.078C455.781 38.1008 456.23 39.5966 456.23 41.485C456.23 43.3702 455.781 44.8634 454.806 45.8845C453.828 46.9094 452.392 47.3851 450.581 47.3851C448.775 47.3851 447.343 46.9091 446.365 45.8845C445.392 44.864 444.938 43.3715 444.931 41.4866V41.4858ZM448.442 44.1383C448.888 44.6742 449.573 44.9735 450.581 44.9735C451.588 44.9735 452.274 44.6742 452.719 44.1383C453.177 43.5873 453.443 42.7139 453.443 41.4432C453.443 40.2021 453.178 39.3511 452.722 38.8142C452.277 38.2908 451.591 37.9965 450.581 37.9965C449.57 37.9965 448.884 38.2908 448.44 38.8142C447.984 39.3511 447.719 40.2021 447.719 41.4432C447.719 42.7139 447.984 43.5873 448.442 44.1383Z" fill="#D2CDD6"/>
<path fill-rule="evenodd" clip-rule="evenodd" d="M436.683 46.9677H438.615V38.9995C439.429 38.0735 440.491 37.6105 441.8 37.6105V36.0023C441.655 36.0023 441.513 36.0076 441.372 36.0184C440.364 36.0954 439.471 36.4494 438.694 37.0802C438.571 37.1804 438.45 37.2876 438.333 37.4017L437.988 36.0023H436.683V46.9677ZM438.582 36.6249L438.323 35.5745H436.255V47.3955H439.043V39.1654C439.755 38.4155 440.663 38.0383 441.8 38.0383H442.228V35.5745H441.8C440.586 35.5745 439.509 35.926 438.582 36.6249Z" fill="#D2CDD6"/>
<path fill-rule="evenodd" clip-rule="evenodd" d="M426.607 45.2968C425.674 45.2968 424.828 45.1088 424.069 44.7329V37.8612C424.8 37.6941 425.653 37.6105 426.628 37.6105C428.891 37.6105 430.022 38.8046 430.022 41.1926C430.022 43.9287 428.884 45.2968 426.607 45.2968ZM424.497 38.2099C425.115 38.0966 425.824 38.0383 426.628 38.0383C427.687 38.0383 428.405 38.3167 428.863 38.8003C429.325 39.2882 429.594 40.0589 429.594 41.1926C429.594 42.5119 429.318 43.4218 428.839 43.9972C428.373 44.5575 427.657 44.8691 426.607 44.8691C425.832 44.8691 425.13 44.7308 424.497 44.4594V38.2099ZM426.649 36.0023C425.096 36.0023 423.592 36.152 422.137 36.4513V50.9362H424.069V46.4456C424.211 46.5056 424.354 46.5605 424.497 46.6102C425.185 46.8486 425.892 46.9677 426.618 46.9677C430.154 46.9677 431.923 45.0497 431.923 41.2135C431.923 37.7393 430.165 36.0023 426.649 36.0023ZM424.497 47.0613C425.185 47.2838 425.893 47.3955 426.618 47.3955C428.461 47.3955 429.92 46.8939 430.911 45.8191C431.896 44.7509 432.35 43.1893 432.35 41.2135C432.35 39.4092 431.894 37.9777 430.905 37.0008C429.917 36.0249 428.471 35.5745 426.649 35.5745C425.069 35.5745 423.536 35.7269 422.051 36.0324L421.71 36.1026V51.3639H424.497V47.0613Z" fill="#D2CDD6"/>
<path fill-rule="evenodd" clip-rule="evenodd" d="M463.748 16.3296C460.782 16.3296 459.299 17.454 459.299 19.7028C459.299 21.9098 460.604 23.0133 463.215 23.0133C464.362 23.0133 465.431 22.7264 466.423 22.1526C466.545 22.0819 466.667 22.0067 466.787 21.9272L467.455 23.0133H468.541V15.4524C468.541 13.1827 466.912 12.0479 463.654 12.0479C462.526 12.0479 461.37 12.2219 460.186 12.57V14.1365C460.329 14.0945 460.472 14.055 460.614 14.018C461.649 13.7489 462.662 13.6144 463.654 13.6144C465.624 13.6144 466.609 14.2445 466.609 15.5046V16.5385C466.466 16.5177 466.324 16.4984 466.181 16.4807C465.37 16.38 464.559 16.3296 463.748 16.3296ZM466.181 16.0497C465.37 15.9512 464.559 15.9019 463.748 15.9019C462.223 15.9019 461.001 16.1888 460.153 16.8321C459.282 17.4923 458.871 18.4758 458.871 19.7028C458.871 20.8928 459.226 21.857 460.002 22.5124C460.763 23.1562 461.86 23.4411 463.215 23.4411C464.442 23.4411 465.588 23.1317 466.647 22.5171L467.216 23.4411H468.969V15.4524C468.969 14.2008 468.511 13.2078 467.564 12.548C466.645 11.9078 465.319 11.6201 463.654 11.6201C462.481 11.6201 461.285 11.8011 460.066 12.1597L459.759 12.25V14.7082L460.307 14.5469C461.455 14.2093 462.57 14.0421 463.654 14.0421C464.607 14.0421 465.248 14.197 465.64 14.4473C465.998 14.6767 466.181 15.0069 466.181 15.5046V16.0497ZM461.231 19.6715C461.231 18.4879 462.07 17.8961 463.748 17.8961C464.701 17.8961 465.655 17.9657 466.609 18.105V20.3816C465.683 21.0918 464.552 21.4468 463.215 21.4468C461.892 21.4468 461.231 20.8551 461.231 19.6715ZM466.181 20.1647V18.4783C465.37 18.3753 464.559 18.3239 463.748 18.3239C462.946 18.3239 462.421 18.4676 462.107 18.6895C461.819 18.8921 461.659 19.1943 461.659 19.6715C461.659 20.1843 461.8 20.4941 462.012 20.6842C462.234 20.8824 462.608 21.0191 463.215 21.0191C464.39 21.0191 465.372 20.7289 466.181 20.1647Z" fill="#D2CDD6"/>
<path fill-rule="evenodd" clip-rule="evenodd" d="M451.834 10.2725H450.622V20.0579C450.622 22.0282 451.541 23.0133 453.379 23.0133H455.218V21.4468H453.881C452.997 21.4468 452.554 20.9351 452.554 19.9117V13.6144H455.218V12.0479H452.252L451.834 10.2725ZM452.59 11.6201L452.173 9.84476H450.195V20.0579C450.195 21.1019 450.438 21.9645 450.999 22.5663C451.565 23.1736 452.387 23.4411 453.379 23.4411H455.645V21.0191H453.881C453.522 21.0191 453.326 20.9182 453.21 20.7834C453.083 20.6366 452.982 20.3715 452.982 19.9117V14.0421H455.645V11.6201H452.59Z" fill="#D2CDD6"/>
<path fill-rule="evenodd" clip-rule="evenodd" d="M445.883 16.6743C445.883 13.59 444.324 12.0479 441.205 12.0479C437.842 12.0479 436.161 13.8337 436.161 17.4053C436.161 21.144 438.044 23.0133 441.81 23.0133C443.196 23.0133 444.372 22.8741 445.34 22.5956V21.0291C445.201 21.0693 445.058 21.1066 444.912 21.141C444.05 21.3449 443.086 21.4468 442.019 21.4468C439.574 21.4468 438.27 20.4685 438.11 18.5119C438.098 18.3741 438.093 18.2315 438.093 18.0841H445.789C445.852 17.5828 445.883 17.1129 445.883 16.6743ZM438.539 18.5119H446.167L446.214 18.1372C446.278 17.6209 446.311 17.133 446.311 16.6743C446.311 15.065 445.904 13.7797 445.014 12.9003C444.126 12.0218 442.829 11.6201 441.205 11.6201C439.451 11.6201 438.058 12.0871 437.11 13.094C436.167 14.096 435.733 15.5598 435.733 17.4053C435.733 19.3414 436.221 20.8718 437.272 21.9149C438.322 22.9574 439.862 23.4411 441.81 23.4411C443.222 23.4411 444.441 23.2995 445.459 23.0067L445.768 22.9176V20.4609L445.222 20.618C444.3 20.8832 443.235 21.0191 442.019 21.0191C440.761 21.0191 439.898 20.7484 439.353 20.2813C438.897 19.8908 438.612 19.3183 438.539 18.5119ZM438.093 16.4758C438.102 16.3275 438.117 16.1849 438.138 16.0481C438.383 14.4117 439.406 13.5935 441.205 13.5935C442.901 13.5935 443.832 14.4117 443.999 16.0481C444.013 16.1849 444.021 16.3275 444.024 16.4758H438.093ZM438.571 16.0481H443.569C443.495 15.3874 443.286 14.9237 442.982 14.6132C442.619 14.2417 442.052 14.0212 441.205 14.0212C440.297 14.0212 439.669 14.2446 439.255 14.6279C438.917 14.9413 438.678 15.4016 438.571 16.0481Z" fill="#D2CDD6"/>
<path fill-rule="evenodd" clip-rule="evenodd" d="M421.71 7.65167H424.497V11.9573C425.207 11.7321 425.952 11.6201 426.732 11.6201C428.533 11.6201 429.962 12.0762 430.937 13.0631C431.911 14.049 432.361 15.4922 432.361 17.3113C432.361 19.2734 431.891 20.8244 430.877 21.8837C429.859 22.9465 428.363 23.4411 426.471 23.4411C424.871 23.4411 423.394 23.2889 422.042 22.9814L421.71 22.9056V7.65167ZM424.497 12.4076C424.353 12.4567 424.21 12.5109 424.069 12.57V8.07943H422.137V22.5643C423.453 22.8636 424.898 23.0133 426.471 23.0133C430.113 23.0133 431.933 21.1127 431.933 17.3113C431.933 13.8024 430.2 12.0479 426.732 12.0479C425.947 12.0479 425.201 12.1678 424.497 12.4076ZM424.497 20.7788C425.021 20.9089 425.646 20.9773 426.377 20.9773C427.514 20.9773 428.293 20.6559 428.797 20.0813C429.311 19.4959 429.605 18.574 429.605 17.2382C429.605 16.1247 429.342 15.3692 428.893 14.8917C428.449 14.4192 427.753 14.1466 426.722 14.1466C425.88 14.1466 425.141 14.2866 424.497 14.5577V20.7788ZM424.069 21.1022C424.703 21.3041 425.472 21.4051 426.377 21.4051C428.814 21.4051 430.032 20.0161 430.032 17.2382C430.032 14.8919 428.929 13.7188 426.722 13.7188C425.719 13.7188 424.835 13.9068 424.069 14.2827V21.1022Z" fill="#D2CDD6"/>
<path fill-rule="evenodd" clip-rule="evenodd" d="M402.434 0V59.0305H400.723V0H402.434Z" fill="#D2CDD6"/>
</svg>
