<svg width="313" height="48" viewBox="0 0 313 48" fill="none" xmlns="http://www.w3.org/2000/svg">
<g filter="url(#filter0_d_2910_7823)">
<path d="M48.3097 20.5377L28.4937 0.721736C27.5334 -0.238564 25.9722 -0.238564 25.0119 0.721736L5.18377 20.5468C4.42579 21.3048 4 22.3315 4 23.4005V39.8827L4.48317 38.5328C4.83649 37.5423 5.40421 36.6454 6.14709 35.9025L25.9812 16.0714C26.407 15.6456 27.0955 15.6456 27.5213 16.0714L47.3071 35.8331C48.0228 36.5488 48.5785 37.4064 48.9348 38.3546L49.4935 39.8374V23.3945C49.4935 22.3225 49.0677 21.2987 48.3097 20.5408V20.5377Z" fill="#D2CDD6"/>
<path d="M75.5575 4.35552e-07L76.6235 0.31708C77.1972 0.48619 77.5898 1.01164 77.5898 1.60956V39.8827H86.9754C88.1682 39.8827 89.1345 38.9163 89.1345 37.7235V2.15917C89.1345 0.966341 88.1682 4.35552e-07 86.9754 4.35552e-07H75.5575Z" fill="#D2CDD6"/>
<path d="M63.5748 24.8198C66.2683 24.8198 68.4519 22.6363 68.4519 19.9428C68.4519 17.2493 66.2683 15.0658 63.5748 15.0658C60.8814 15.0658 58.6978 17.2493 58.6978 19.9428C58.6978 22.6363 60.8814 24.8198 63.5748 24.8198Z" fill="#D2CDD6"/>
<path d="M103.131 24.8198C105.825 24.8198 108.008 22.6363 108.008 19.9428C108.008 17.2493 105.825 15.0658 103.131 15.0658C100.438 15.0658 98.2544 17.2493 98.2544 19.9428C98.2544 22.6363 100.438 24.8198 103.131 24.8198Z" fill="#D2CDD6"/>
<path d="M137.386 14.5646H132.177L124.011 0H129.861L134.859 10.3278H134.979L139.947 0H145.706L137.386 14.5646Z" fill="#D2CDD6"/>
<path d="M162.496 3.58207e-07H177V2.96244H167.524V5.71952H176.484V8.53701H167.524V11.5629H177.55V14.5676H162.496V3.58207e-07Z" fill="#D2CDD6"/>
<path d="M207.808 14.5646L203.124 8.78463H201.349V14.5646H196.26V3.58207e-07H204.489C205.525 3.58207e-07 206.537 0.0724762 207.521 0.217427C208.506 0.362378 209.391 0.603963 210.173 0.948221C210.955 1.29248 211.58 1.74243 212.048 2.30714C212.516 2.86882 212.749 3.56942 212.749 4.40591C212.749 5.39338 212.353 6.22383 211.559 6.89423C210.768 7.56765 209.668 8.0478 208.267 8.33468L213.905 14.5676H207.811L207.808 14.5646ZM207.594 4.46328C207.594 4.12204 207.485 3.84422 207.274 3.62981C207.059 3.41843 206.785 3.25234 206.446 3.13759C206.108 3.01981 205.731 2.9413 205.314 2.90204C204.897 2.85976 204.492 2.84164 204.106 2.84164H201.319V6.23591H203.798C204.227 6.23591 204.665 6.21175 205.115 6.16344C205.564 6.11512 205.972 6.03056 206.338 5.90675C206.706 5.78294 207.005 5.60477 207.24 5.37225C207.476 5.13972 207.594 4.83774 207.594 4.4663V4.46328Z" fill="#D2CDD6"/>
<path d="M232.459 14.5646V3.58207e-07H237.701V14.5646H232.459Z" fill="#D2CDD6"/>
<path d="M261.561 3.00471V6.00641H269.911V8.90845H261.561V14.5646H256.412V3.58207e-07H270.611V3.00471H261.561Z" fill="#D2CDD6"/>
<path d="M300.716 8.39206V14.5646H295.507V8.39206L287.401 3.58207e-07H293.71L298.312 5.39036L302.914 3.58207e-07H309.008L300.719 8.39206H300.716Z" fill="#D2CDD6"/>
<path d="M124.729 39.8888V23.9871H127.342L133.18 37.2533L138.907 23.9871H141.409V39.8888H139.574V26.845L133.925 39.8888H132.301L126.563 26.845V39.8888H124.729Z" fill="#D2CDD6"/>
<path d="M153.634 31.8935C153.634 36.1858 155.573 38.332 159.45 38.332C163.246 38.332 165.143 36.1858 165.143 31.8935C165.143 27.6604 163.246 25.5439 159.45 25.5439C155.573 25.5439 153.634 27.6604 153.634 31.8935ZM151.466 31.9602C151.466 26.5707 154.127 23.8759 159.45 23.8759C164.691 23.8759 167.312 26.5707 167.312 31.9602C167.312 37.3201 164.691 40 159.45 40C154.127 40 151.466 37.3201 151.466 31.9602Z" fill="#D2CDD6"/>
<path d="M178.992 31.8935C178.992 36.1858 180.931 38.332 184.808 38.332C188.604 38.332 190.502 36.1858 190.502 31.8935C190.502 27.6604 188.604 25.5439 184.808 25.5439C180.931 25.5439 178.992 27.6604 178.992 31.8935ZM176.824 31.9602C176.824 26.5707 179.485 23.8759 184.808 23.8759C190.049 23.8759 192.67 26.5707 192.67 31.9602C192.67 37.3201 190.049 40 184.808 40C179.485 40 176.824 37.3201 176.824 31.9602Z" fill="#D2CDD6"/>
<path d="M202.738 39.8888V23.9871H204.795L214.525 36.7974V23.9871H216.471V39.8888H214.414L204.684 26.9673V39.8888H202.738Z" fill="#D2CDD6"/>
<path d="M226.873 39.3328V37.4424C228.541 38.0355 230.343 38.332 232.277 38.332C235.013 38.332 236.381 37.3312 236.381 35.3296C236.381 33.6245 235.373 32.772 233.356 32.772H231.31C227.981 32.772 226.317 31.3264 226.317 28.4351C226.317 25.3957 228.448 23.8759 232.711 23.8759C234.564 23.8759 236.288 24.0983 237.882 24.5431V26.4335C236.288 25.8405 234.564 25.5439 232.711 25.5439C229.82 25.5439 228.374 26.5077 228.374 28.4351C228.374 30.1402 229.353 30.9928 231.31 30.9928H233.356C236.744 30.9928 238.438 32.4384 238.438 35.3296C238.438 38.4432 236.384 40 232.277 40C230.343 40 228.541 39.7776 226.873 39.3328Z" fill="#D2CDD6"/>
<path d="M248.273 39.8888V23.9871H250.33V30.9928H259.726V23.9871H261.783V39.8888H259.726V32.6608H250.33V39.8888H248.273Z" fill="#D2CDD6"/>
<path d="M274.02 31.8935C274.02 36.1858 275.958 38.332 279.836 38.332C283.631 38.332 285.529 36.1858 285.529 31.8935C285.529 27.6604 283.631 25.5439 279.836 25.5439C275.958 25.5439 274.02 27.6604 274.02 31.8935ZM271.852 31.9602C271.852 26.5707 274.513 23.8759 279.836 23.8759C285.077 23.8759 287.698 26.5707 287.698 31.9602C287.698 37.3201 285.077 40 279.836 40C274.513 40 271.852 37.3201 271.852 31.9602Z" fill="#D2CDD6"/>
<path d="M308.497 23.9871V25.6551H303.493V39.8888H301.435V25.6551H296.431V23.9871H308.497Z" fill="#D2CDD6"/>
</g>
<defs>
<filter id="filter0_d_2910_7823" x="0" y="0" width="313.008" height="48" filterUnits="userSpaceOnUse" color-interpolation-filters="sRGB">
<feFlood flood-opacity="0" result="BackgroundImageFix"/>
<feColorMatrix in="SourceAlpha" type="matrix" values="0 0 0 0 0 0 0 0 0 0 0 0 0 0 0 0 0 0 127 0" result="hardAlpha"/>
<feOffset dy="4"/>
<feGaussianBlur stdDeviation="2"/>
<feComposite in2="hardAlpha" operator="out"/>
<feColorMatrix type="matrix" values="0 0 0 0 0 0 0 0 0 0 0 0 0 0 0 0 0 0 0.25 0"/>
<feBlend mode="normal" in2="BackgroundImageFix" result="effect1_dropShadow_2910_7823"/>
<feBlend mode="normal" in="SourceGraphic" in2="effect1_dropShadow_2910_7823" result="shape"/>
</filter>
</defs>
</svg>
